<svg width="47" height="46" viewBox="0 0 47 46" fill="none" xmlns="http://www.w3.org/2000/svg">
<path d="M23.9108 0L23.8061 0C11.1362 0 0.865234 10.274 0.865234 22.9476L0.865234 23.0524C0.865234 35.726 11.1362 46 23.8061 46H23.9108C36.5807 46 46.8517 35.726 46.8517 23.0524V22.9476C46.8517 10.274 36.5807 0 23.9108 0Z" fill="#E0A06B"/>
<path d="M28.3404 29.7281C22.4549 29.7281 17.6667 24.9369 17.665 19.0497C17.6667 17.5573 18.8814 16.3438 20.3701 16.3438C20.5232 16.3438 20.6746 16.3567 20.8196 16.3825C21.1386 16.4356 21.4415 16.5436 21.7203 16.7064C21.7605 16.7306 21.7879 16.7693 21.7944 16.8144L22.4163 20.7354C22.4243 20.7805 22.4098 20.8273 22.3792 20.8611C22.036 21.2414 21.5978 21.5154 21.1096 21.6524L20.8744 21.7185L20.963 21.9457C21.7654 23.9892 23.3991 25.6218 25.4436 26.4276L25.6708 26.5178L25.7368 26.2825C25.8737 25.7942 26.1476 25.3559 26.5279 25.0126C26.5553 24.9868 26.5923 24.9739 26.6294 24.9739C26.6374 24.9739 26.6455 24.9739 26.6551 24.9755L30.575 25.5976C30.6217 25.6057 30.6604 25.6315 30.6846 25.6717C30.8457 25.9506 30.9536 26.2552 31.0084 26.5742C31.0342 26.7161 31.0455 26.8659 31.0455 27.0223C31.0455 28.513 29.8323 29.7265 28.3404 29.7281Z" fill="#FDFDFD"/>
<path d="M38.7773 21.7086C38.4599 18.1211 36.8165 14.7932 34.1501 12.3387C31.4676 9.86972 27.9875 8.50952 24.348 8.50952C16.36 8.50952 9.86073 15.0107 9.86073 23.0011C9.86073 25.6828 10.6002 28.2952 12.0003 30.5708L8.87793 37.4845L18.875 36.4193C20.6134 37.1316 22.4533 37.4926 24.3464 37.4926C24.8442 37.4926 25.355 37.4668 25.8673 37.4136C26.3184 37.3653 26.7744 37.2944 27.2223 37.2041C33.9117 35.852 38.795 29.9132 38.8337 23.0784V23.0011C38.8337 22.5659 38.8143 22.1308 38.7757 21.7102L38.7773 21.7086ZM19.2601 33.3846L13.7291 33.9745L15.3805 30.3145L15.0502 29.8713C15.026 29.8391 15.0018 29.8069 14.9745 29.7698C13.5406 27.7891 12.7833 25.4491 12.7833 23.0027C12.7833 16.6239 17.9711 11.4346 24.348 11.4346C30.3221 11.4346 35.3858 16.097 35.874 22.0486C35.8998 22.3677 35.9143 22.6884 35.9143 23.0043C35.9143 23.0945 35.9127 23.1832 35.9111 23.2783C35.7886 28.6143 32.0621 33.1461 26.8485 34.3C26.4505 34.3887 26.0429 34.4563 25.6369 34.4999C25.2148 34.5482 24.7814 34.5724 24.3512 34.5724C22.819 34.5724 21.3304 34.2758 19.9238 33.6892C19.7676 33.6264 19.6145 33.5587 19.4711 33.4894L19.2617 33.3878L19.2601 33.3846Z" fill="#FDFDFD"/>
</svg>
