<svg width="45" height="46" viewBox="0 0 45 46" fill="none" xmlns="http://www.w3.org/2000/svg">
<path d="M44.9968 22.6149C44.9968 34.0365 36.5735 43.4789 25.631 45.0112C24.6078 45.1538 23.561 45.2283 22.4984 45.2283C21.2719 45.2283 20.0674 45.13 18.8945 44.9399C8.1821 43.2064 0 33.8701 0 22.6149C0 10.1254 10.0739 0 22.5 0C34.9261 0 45 10.1254 45 22.6149H44.9968Z" fill="#E0A06B"/>
<path d="M25.6311 18.1591V23.0855H31.6943L30.7342 29.7217H25.6311V45.0112C24.6079 45.1538 23.5611 45.2282 22.4985 45.2282C21.272 45.2282 20.0676 45.13 18.8946 44.9399V29.7217H13.3027L13.3027 23.0855H18.8946V17.0578C18.8946 13.3183 21.9105 10.2854 25.6326 10.2854V10.2886C25.6437 10.2886 25.6531 10.2854 25.6642 10.2854H31.6959V16.0247H27.7546C26.5833 16.0247 25.6326 16.9802 25.6326 18.1575L25.6311 18.1591Z" fill="white"/>
</svg>
