<svg width="51" height="51" viewBox="0 0 51 51" fill="none" xmlns="http://www.w3.org/2000/svg">
<path d="M25.233 0H25.1184C11.2459 0 0 11.2492 0 25.1258V25.2405C0 39.1171 11.2459 50.3662 25.1184 50.3662H25.233C39.1055 50.3662 50.3514 39.1171 50.3514 25.2405V25.1258C50.3514 11.2492 39.1055 0 25.233 0Z" fill="#E0A06B"/>
<path d="M32.9671 10.2469H17.387C13.0827 10.2469 9.58105 13.7496 9.58105 18.0552L9.58105 32.313C9.58105 36.6185 13.0827 40.1212 17.387 40.1212H32.9671C37.2714 40.1212 40.7731 36.6185 40.7731 32.313V18.0552C40.7731 13.7496 37.2714 10.2469 32.9671 10.2469ZM12.3347 18.0552C12.3347 15.2689 14.6016 13.0014 17.387 13.0014H32.9671C35.7526 13.0014 38.0194 15.2689 38.0194 18.0552V32.313C38.0194 35.0992 35.7526 37.3667 32.9671 37.3667H17.387C14.6016 37.3667 12.3347 35.0992 12.3347 32.313V18.0552Z" fill="white"/>
<path d="M25.1778 32.4453C29.1805 32.4453 32.4387 29.1879 32.4387 25.1823C32.4387 21.1767 29.1823 17.9193 25.1778 17.9193C21.1734 17.9193 17.917 21.1767 17.917 25.1823C17.917 29.1879 21.1734 32.4453 25.1778 32.4453ZM25.1778 20.6756C27.6634 20.6756 29.685 22.6978 29.685 25.1841C29.685 27.6703 27.6634 29.6925 25.1778 29.6925C22.6923 29.6925 20.6707 27.6703 20.6707 25.1841C20.6707 22.6978 22.6923 20.6756 25.1778 20.6756Z" fill="white"/>
<path d="M33.1106 19.0928C34.1885 19.0928 35.067 18.2158 35.067 17.1359C35.067 16.056 34.1902 15.179 33.1106 15.179C32.031 15.179 31.1543 16.056 31.1543 17.1359C31.1543 18.2158 32.031 19.0928 33.1106 19.0928Z" fill="white"/>
</svg>
